<svg height='300px' width='300px'  fill="#000000" xmlns="http://www.w3.org/2000/svg" xmlns:xlink="http://www.w3.org/1999/xlink" viewBox="0 0 100 100" version="1.1" xml:space="preserve" x="0px" y="0px"><g><path d="M 70.402 5.4521 C 63.8684 5.4521 56.9264 38.1478 56.9264 46.8279 C 56.9264 51.9923 57.7407 55.5107 62.1995 57.54 C 64.4606 58.5647 64.4809 59.6098 64.4809 59.6098 C 64.4809 59.6098 62.0843 86.24 62.0843 88.5305 C 62.0843 90.821 62.8906 92.2478 64.0008 93.3525 C 65.111 94.4584 66.8672 95 68.5218 95 L 68.5613 95 L 68.602 95 C 70.2577 95 71.9924 94.4584 73.1229 93.3525 C 74.2331 92.2478 75 91.1634 75 88.5305 C 75 87.5159 73.5028 75.1322 73.4089 59.9911 C 73.2605 36.0685 72.648 5.4521 72.648 5.4521 L 70.402 5.4521 ZM 50.8315 31.9253 C 50.8315 23.2453 47.8047 13.1981 45.9875 5.0596 L 45.9875 5 L 44.3736 5 L 44.3329 28.4896 C 44.3329 29.7147 43.7479 30.7204 42.5169 30.7204 C 41.366 30.7204 40.9018 29.8567 40.781 28.7305 C 40.7606 28.6506 40.781 28.5707 40.781 28.4896 L 38.7029 5 L 37.0879 5 L 35.2718 28.5098 L 35.2515 28.7305 C 35.1306 29.8567 34.505 30.7204 33.3337 30.7204 C 32.1039 30.7204 31.4985 29.7147 31.4985 28.4896 L 31.4172 5 L 29.8021 5 C 28.0267 13.2386 25 23.2656 25 31.9456 C 25 37.11 27.9466 41.611 32.4054 43.6403 C 34.6665 44.665 34.6868 45.7101 34.6868 45.7101 C 34.6868 45.7101 31.4579 86.24 31.4579 88.5305 C 31.4579 90.821 32.2642 92.2478 33.3744 93.3525 C 34.4846 94.4584 36.2408 95 37.8954 95 L 37.9349 95 L 37.9755 95 C 39.6313 95 41.366 94.4584 42.4965 93.3525 C 43.6067 92.2478 44.3736 91.1634 44.3736 88.5305 C 44.3736 85.8988 41.1447 45.7101 41.1447 45.7101 C 41.1447 45.7101 40.9425 44.7056 43.4452 43.5806 C 47.8047 41.611 50.8315 37.11 50.8315 31.9253 Z" fill="#000000"></path></g></svg>