<?xml version="1.0" encoding="UTF-8" standalone="no"?>
<svg
        xmlns:dc="http://purl.org/dc/elements/1.1/"
        xmlns:cc="http://creativecommons.org/ns#"
        xmlns:rdf="http://www.w3.org/1999/02/22-rdf-syntax-ns#"
        xmlns="http://www.w3.org/2000/svg"
        xmlns:sodipodi="http://sodipodi.sourceforge.net/DTD/sodipodi-0.dtd"
        xmlns:inkscape="http://www.inkscape.org/namespaces/inkscape"
        width="210mm"
        height="297mm"
        viewBox="0 0 210 297"
        version="1.1"
        id="svg8"
        inkscape:version="1.0.1 (3bc2e813f5, 2020-09-07)"
        sodipodi:docname="crewmate.svg"
        inkscape:export-filename="C:\Users\Alex\IdeaProjects\DS5\data\graphics\icons\crewmate.png"
        inkscape:export-xdpi="26.943153"
        inkscape:export-ydpi="26.943153">
  <defs
     id="defs2" />
  <sodipodi:namedview
     id="base"
     pagecolor="#ffffff"
     bordercolor="#666666"
     borderopacity="1.0"
     inkscape:pageopacity="0.0"
     inkscape:pageshadow="2"
     inkscape:zoom="2.8"
     inkscape:cx="50.726235"
     inkscape:cy="456.35609"
     inkscape:document-units="mm"
     inkscape:current-layer="layer1"
     inkscape:document-rotation="0"
     showgrid="false"
     inkscape:window-width="3440"
     inkscape:window-height="1361"
     inkscape:window-x="-9"
     inkscape:window-y="-9"
     inkscape:window-maximized="1" />
  <metadata
     id="metadata5">
    <rdf:RDF>
      <cc:Work
         rdf:about="">
        <dc:format>image/svg+xml</dc:format>
        <dc:type
           rdf:resource="http://purl.org/dc/dcmitype/StillImage" />
        <dc:title />
      </cc:Work>
    </rdf:RDF>
  </metadata>
  <g
     inkscape:label="Calque 1"
     inkscape:groupmode="layer"
     id="layer1">
    <path
       style="fill:#000000;stroke-width:0.264583"
       d="m 25.423094,149.08901 c -0.308804,-0.17097 -0.38198,-1.03445 -0.381181,-4.49792 8.99e-4,-3.90228 0.05131,-4.36889 0.562658,-5.2077 0.308918,-0.50675 0.754957,-1.06774 0.991198,-1.24665 0.48239,-0.36533 4.848488,-2.10888 6.249927,-2.49584 0.756198,-0.20879 0.966017,-0.4338 1.231838,-1.32103 0.276509,-0.92291 0.257363,-1.16611 -0.139777,-1.77558 -0.253094,-0.38841 -0.674628,-1.28703 -1.009611,-1.96297 -0.469425,-0.94722 -0.680461,-1.25677 -1.184121,-1.25677 -1.103905,0 -2.439279,-0.7309 -2.992152,-1.63772 -0.410258,-0.67291 -0.533971,-1.33557 -0.533971,-2.8602 0,-2.4368 0.706038,-3.28051 2.113659,-4.16205 0.725733,-0.4545 1.102033,-0.60708 1.440188,-1.59951 1.489276,-4.37079 6.103705,-6.66622 10.251978,-5.09982 1.918103,0.72429 4.091134,2.97966 4.805832,4.98795 0.386871,1.0871 0.68095,1.46675 1.400717,1.8083 0.501074,0.23778 1.094484,0.78706 1.318694,1.22064 0.491924,0.95127 0.565089,4.37193 0.116102,5.428 -0.419092,0.98576 -1.434118,1.67721 -2.714135,1.84889 -0.911598,0.12227 -1.123305,0.27702 -1.450592,1.06033 -0.210767,0.50444 -0.674984,1.35806 -1.031592,1.89693 -0.607467,0.91794 -0.625662,1.04538 -0.288387,2.01958 0.291642,0.84238 0.55595,1.1088 1.392046,1.40314 7.679706,2.70357 7.763849,2.80331 7.773117,9.21419 0.0042,2.93025 -0.0838,4.07728 -0.324919,4.23334 -0.429662,0.27808 -27.095383,0.28047 -27.597516,0.002 z m 3.58658,-2.83113 c 3e-6,-1.23472 0.477739,-2.01644 0.632079,-2.01644 0.154404,0 0.426254,0.80383 0.426254,2.02254 v 2.12278 l 4.167187,-0.0723 4.362267,-0.0889 0.03075,-3.49939 c 0.01963,-2.23414 -0.06139,-4.56581 -0.133173,-4.75287 -0.107338,-0.27972 -1.995783,-1.74035 -3.990399,-3.19371 -0.406963,-0.29654 -1.282428,-0.26033 -2.789346,0.23631 -3.057939,1.0078 -4.555462,1.5528 -5.107676,2.45841 -0.443816,0.72785 -0.506385,1.36168 -0.507373,5.12994 l -9.89e-4,3.77031 h 1.190625 1.719792 z m 19.236309,-0.1824 c 0,0 -0.01074,-2.34039 0.432845,-2.35053 0.427398,-0.01 0.461131,2.38394 0.461131,2.38394 l 0.110339,2.13336 h 1.719792 l 1.424485,-0.13363 -0.0109,-3.43895 c -0.01243,-3.92123 -0.02878,-3.9166 -0.607653,-4.77559 -0.334444,-0.49628 -0.747642,-0.84786 -1.224466,-1.16919 -1.023337,-0.68963 -5.542107,-2.36108 -6.006905,-2.18272 -0.177057,0.0679 -1.42314,0.50582 -2.769073,1.61982 l -2.062951,1.75819 0.100226,4.44901 c 0.0518,2.29938 -0.0014,3.75138 0.0989,3.85171 0.100332,0.10033 1.812787,0.13324 4.295451,0.0935 l 3.984764,-0.0722 z m -7.205622,-8.50999 c 2.936617,-2.29308 2.631739,-1.89557 2.313469,-2.8131 -0.328025,-0.94564 -0.496641,-0.93461 -0.983014,-0.59577 -1.481311,1.03195 -3.805917,1.36677 -6.04924,0.23522 l -1.115089,-0.64199 -0.157245,0.91506 c -0.140256,0.8162 -0.396313,0.96622 -0.148281,1.21523 0.37473,0.3762 3.990275,3.18986 4.115123,3.21617 0.0465,0.01 0.819609,-0.59015 2.024277,-1.53082 z m 0.694363,-4.0278 c 1.171222,-0.58839 2.207693,-1.97167 2.954978,-3.46757 l 0.331401,-0.66339 -5.744425,-0.021 c -3.361761,-0.0123 -5.712777,-0.0359 -5.776178,0.0275 -0.198257,0.19826 0.472195,1.86367 1.129664,2.5572 1.225499,1.29271 1.802967,1.67337 3.044451,2.00685 1.434228,0.38524 2.68867,0.24944 4.060109,-0.43954 z m -4.633511,-1.59747 c -0.972535,-0.765 -0.729264,-1.39543 0.525467,-0.74789 1.144552,0.59067 2.363315,0.52105 3.460217,-0.19767 0.375889,-0.24629 0.622776,0.23537 0.622776,0.40933 0,0.49168 -1.504409,1.09556 -2.729304,1.09556 -0.788449,0 -1.399186,-0.18179 -1.879156,-0.55933 z m 11.192121,-4.10546 c 0.700363,-0.49055 0.874785,-1.01131 0.858081,-2.30476 -0.0065,-0.50696 -0.543893,-0.4528 -1.572139,-0.46951 -1.146375,-0.0186 -1.900853,-0.34557 -1.900853,-0.49844 0,-0.1513 0.779814,-0.64878 1.843682,-0.64878 1.393537,0 1.385414,0.2865 1.497317,-0.005 0.224941,-0.58619 -0.737251,-2.33979 -1.488916,-2.71356 -0.485,-0.24117 -2.380358,-0.32996 -8.55927,-0.33282 0,0 -5.425798,-0.0626 -7.496908,0.11293 -0.357607,0.0303 -1.300487,0.78266 -1.300487,0.78266 -0.777294,0.66923 -0.900307,1.34007 -0.88288,1.87013 l 0.01671,0.5082 1.405096,-0.0501 c 1.145799,-0.0409 2.001079,0.32349 2.001079,0.47636 0,0.15287 -0.854551,0.58196 -2.001079,0.58196 h -1.455208 l 0.0167,0.76741 c 0.01917,0.8807 -0.01695,1.06785 0.899584,1.98438 l 0.899583,0.37041 h 8.037378 c 7.491628,0 8.643838,-0.0541 9.182532,-0.43145 z m -9.02723,-8.93084 c 0.522012,-0.64155 1.676057,-1.26846 1.998454,-1.26846 0.322397,0 0.91478,0.19956 1.58182,0.70888 1.021848,0.78024 1.426396,1.45521 2.56942,1.45521 1.285012,0 0.817736,-0.0314 0.643381,-0.59532 -1.00393,-2.13687 -1.748963,-3.09636 -3.6529,-4.04513 -3.644935,-1.81635 -7.658554,-0.52803 -9.448365,3.41358 -0.810297,1.78445 -1.381179,1.22715 2.07103,1.2243 l 3.108854,-0.003 z m 3.237319,0.23417 c -0.797942,-0.84937 -1.340796,-0.85254 -2.300349,-0.008 l -0.742359,0.65309 1.567475,0.008 2.096641,0.008 z"
       id="path24"
       sodipodi:nodetypes="csssssssssssssssssssssscsccssscccsssssscccscsccccssscscsssccsssscsscscscssssccsssssscsssssscssscssscsscscccssscssccccccccc"
       inkscape:export-xdpi="51.050186"
       inkscape:export-ydpi="51.050186" />
    <path
       style="fill:#000000;stroke-width:0.264583"
       d="m 89.395342,154.27927 c -0.308804,-0.17097 -0.38198,-1.03445 -0.381181,-4.49792 8.99e-4,-3.90228 0.05131,-4.36889 0.562658,-5.2077 0.308918,-0.50675 0.754957,-1.06774 0.991198,-1.24665 0.48239,-0.36533 4.848488,-2.10888 6.249927,-2.49584 0.756198,-0.20879 0.966017,-0.4338 1.231838,-1.32103 0.276509,-0.92291 0.257363,-1.16611 -0.139777,-1.77558 -0.253094,-0.38841 -0.707419,-1.27175 -1.009611,-1.96297 -0.436016,-0.99733 -0.680461,-1.25677 -1.184121,-1.25677 -1.103905,0 -2.439279,-0.7309 -2.992152,-1.63772 -0.410258,-0.67291 -0.533971,-1.33557 -0.533971,-2.8602 0,-2.4368 0.56777,-3.55481 2.113659,-4.16205 0.859368,-0.33757 1.102033,-0.60708 1.440188,-1.59951 1.489276,-4.37079 6.103703,-6.66622 10.251983,-5.09982 1.9181,0.72429 4.09113,2.97966 4.80583,4.98795 0.38687,1.0871 0.68095,1.46675 1.40072,1.8083 0.50107,0.23778 1.09448,0.78706 1.31869,1.22064 0.49192,0.95127 0.56509,4.37193 0.1161,5.428 -0.41909,0.98576 -1.43412,1.67721 -2.71413,1.84889 -0.9116,0.12227 -1.12331,0.27702 -1.4506,1.06033 -0.21076,0.50444 -0.67498,1.35806 -1.03159,1.89693 -0.60746,0.91794 -0.62566,1.04538 -0.28838,2.01958 0.29164,0.84238 0.55595,1.1088 1.39204,1.40314 7.67971,2.70357 7.76385,2.80331 7.77312,9.21419 0.004,2.93025 -0.0838,4.07728 -0.32492,4.23334 -0.42966,0.27808 -27.095385,0.28047 -27.597518,0.002 z m 3.58658,-2.30196 c 0,-1.23472 0.110243,-2.11667 0.264583,-2.11667 0.154404,0 0.264583,0.88398 0.264583,2.12277 v 2.12278 l 4.696354,-0.0723 4.696358,-0.0722 0.0474,-4.06196 c 0.0261,-2.23408 -0.0113,-4.21503 -0.0831,-4.40208 -0.10734,-0.27972 -2.925858,-2.60361 -4.920474,-4.05697 -0.406963,-0.29654 -0.753261,-0.26033 -2.260179,0.23631 -3.057939,1.0078 -5.084629,2.08197 -5.636843,2.98758 -0.443816,0.72785 -0.506506,1.36168 -0.507373,5.12994 l -9.89e-4,4.29948 h 1.719792 1.719792 z m 19.832298,-0.13229 0.12083,-2.11667 0.14375,2.11667 0.14375,2.11666 h 1.71979 1.71979 l 0.0726,-4.11845 c 0.0691,-3.92064 0.0434,-4.1618 -0.53546,-5.02079 -0.33445,-0.49628 -0.99821,-1.16524 -1.47503,-1.48657 -1.02334,-0.68963 -5.74256,-2.31097 -6.20736,-2.13261 -0.17706,0.0679 -1.42314,1.03499 -2.76907,2.14899 l -2.44716,2.02546 v 4.18174 c 0,2.29996 0.0821,4.26384 0.18243,4.36417 0.10033,0.10033 2.21369,0.14994 4.69635,0.11024 l 4.51393,-0.0722 z m -7.55105,-8.72177 c 2.93662,-2.29308 2.91572,-2.26307 2.4137,-3.46457 -0.38588,-0.92355 -0.44329,-0.96012 -0.88279,-0.56237 -1.56483,1.41615 -4.25693,1.61734 -6.50025,0.48579 l -1.493923,-0.75355 -0.307584,1.02662 c -0.237686,0.79332 -0.234642,1.09985 0.01339,1.34886 0.37473,0.3762 4.357767,3.5854 4.482617,3.61171 0.0465,0.01 1.07018,-0.75182 2.27484,-1.69249 z m 0.4438,-3.86613 c 1.17123,-0.58839 2.53153,-2.10405 3.17214,-3.53439 l 0.48174,-1.07563 -6.11192,-0.0711 c -3.361559,-0.0391 -6.163798,-0.0192 -6.227199,0.0442 -0.198257,0.19826 0.923212,2.37614 1.580681,3.06967 1.2255,1.29271 1.802968,1.67337 3.044448,2.00685 1.43423,0.38524 2.68867,0.24944 4.06011,-0.43954 z m -4.63351,-2.12664 c -0.97253,-0.765 -0.72926,-0.86626 0.52547,-0.21872 1.14455,0.59067 2.36331,0.52105 3.46022,-0.19767 0.37589,-0.24629 0.62277,-0.2938 0.62277,-0.11984 0,0.49168 -1.50441,1.09556 -2.7293,1.09556 -0.78845,0 -1.39919,-0.18179 -1.87916,-0.55933 z m 11.19212,-3.57629 c 0.70037,-0.49055 1.35384,-1.87457 1.35384,-2.86734 0,-0.65734 -0.0374,-0.66996 -1.98437,-0.66996 -1.14653,0 -1.98438,-0.11171 -1.98438,-0.26458 0,-0.1513 0.79652,-0.26458 1.86039,-0.26458 1.39354,0 1.89788,-0.0977 2.00978,-0.38931 0.22494,-0.58619 -0.73725,-2.33979 -1.48892,-2.71356 -0.485,-0.24117 -2.90952,-0.32996 -9.08843,-0.33282 l -8.426985,-0.004 -0.899583,0.89959 c -0.636138,0.63612 -0.899584,1.13977 -0.899584,1.71979 v 0.82021 h 1.984375 c 1.146528,0 1.984375,0.11171 1.984375,0.26458 0,0.15287 -0.837847,0.26458 -1.984375,0.26458 h -1.984375 v 1.08479 c 0,0.88091 0.169075,1.25387 0.899584,1.98438 l 0.899583,0.89958 h 8.566545 c 7.49163,0 8.64384,-0.0541 9.18253,-0.43145 z m -8.99382,-8.96382 c 0.63894,-0.50791 1.42549,-0.92348 1.74789,-0.92348 0.3224,0 1.13194,0.41672 1.79898,0.92604 1.02185,0.78024 1.42639,0.92605 2.56942,0.92605 1.28501,0 1.3469,-0.0314 1.17255,-0.59532 -0.68655,-2.2204 -2.24473,-4.12666 -4.14866,-5.07543 -3.64494,-1.81635 -8.221134,-0.0269 -10.010945,3.91471 -0.810297,1.78445 -0.852012,1.75632 2.600197,1.75347 l 3.108858,-0.003 1.16171,-0.92347 z m 3.20391,0.26715 c -0.79794,-0.84937 -1.86996,-0.85254 -2.82951,-0.008 l -0.74236,0.65309 2.09664,0.008 2.09664,0.008 z"
       id="path24-5"
       sodipodi:nodetypes="csssssssssssssssssssssscsccssscccsssssscccsccccccssscscsssccsssscsscscscssssccsssssscssssssccsscssscsscscccssscsscccccccccc" />
  </g>
</svg>
